<svg id="Layer_1" data-name="Layer 1" xmlns="http://www.w3.org/2000/svg" viewBox="0 0 1000 1000"><defs><style>.cls-1{fill:#fff;}.cls-2{fill:#d80505;}</style></defs><title>softpro 1</title><path class="cls-1" d="M29.6,489.64,42.28,482q13.38,24.66,30.94,24.66a29.69,29.69,0,0,0,14.1-3.5,24.8,24.8,0,0,0,10-9.39,24.27,24.27,0,0,0,3.45-12.48,25.34,25.34,0,0,0-5.07-14.71q-7-9.93-25.57-23.94T46.94,422.28A37.29,37.29,0,0,1,39,399.46a34.64,34.64,0,0,1,4.67-17.75,33.2,33.2,0,0,1,13.13-12.63,37.87,37.87,0,0,1,18.42-4.62A39.27,39.27,0,0,1,95,369.68q9.18,5.24,19.42,19.23l-12.17,9.23Q93.82,387,87.88,383.43a24.73,24.73,0,0,0-12.94-3.55q-9,0-14.76,5.48a17.93,17.93,0,0,0-5.73,13.49,23,23,0,0,0,2,9.43,34.82,34.82,0,0,0,7.4,10q3,2.83,19.28,14.91,19.38,14.3,26.58,25.46t7.2,22.42q0,16.23-12.33,28.2a41.41,41.41,0,0,1-30,12A44,44,0,0,1,50,513.94Q38.92,506.68,29.6,489.64Z"/><path class="cls-1" d="M219.55,364.46q33.9,0,56.74,22.62t22.84,55.7q0,32.76-22.79,55.59t-55.57,22.82q-33.2,0-56-22.72t-22.83-55a79.47,79.47,0,0,1,10.4-39.87,76.86,76.86,0,0,1,67.25-39.16Zm.66,14.51a63.69,63.69,0,0,0-54.56,31.88,64.54,64.54,0,0,0-8.34,32.58q0,26.61,18.45,44.93a60.76,60.76,0,0,0,44.45,18.33,63.84,63.84,0,0,0,32.16-8.43,60.36,60.36,0,0,0,23.06-23.05,64.73,64.73,0,0,0,8.28-32.49,63.19,63.19,0,0,0-8.28-32.13,61.75,61.75,0,0,0-23.32-23A63,63,0,0,0,220.21,379Z"/><path class="cls-1" d="M329.06,368.21h74.77v14.61H344v46.77h59.86V444.2H344v73.24H329.06Z"/><path class="cls-1" d="M415,382.82V368.21h81.77v14.61H463.48V517.44H448.26V382.82Z"/><path class="cls-2" d="M518.15,368.21h29.73q25.56,0,34.49,2.24a38.25,38.25,0,0,1,20.9,12.93q8.12,9.8,8.11,24.6t-7.91,24.6q-7.92,9.69-21.81,13-10.15,2.43-37.94,2.43H533.07v69.39H518.15Zm14.92,14.61v50.62l25.26.31q15.31,0,22.42-2.79a22.92,22.92,0,0,0,11.15-9A24.91,24.91,0,0,0,596,408a24.59,24.59,0,0,0-4.06-13.72,22.4,22.4,0,0,0-10.7-8.86q-6.65-2.62-21.76-2.63Z"/><path class="cls-2" d="M642,368.21h29.72q24.85,0,33.68,2A38.44,38.44,0,0,1,727,383.3q8.31,10,8.32,24.63a39.81,39.81,0,0,1-5.73,21.43,35.86,35.86,0,0,1-16.39,14q-10.65,4.73-29.42,4.82l53.67,69.29H719l-53.67-69.29h-8.43v69.29H642Zm14.91,14.61v50.72l25.71.21q14.93,0,22.1-2.84a23,23,0,0,0,11.17-9.08,25.21,25.21,0,0,0,4-13.95,24.21,24.21,0,0,0-4.07-13.65,22.62,22.62,0,0,0-10.67-8.77q-6.6-2.64-21.94-2.64Z"/><path class="cls-2" d="M838.36,364.46q33.92,0,56.75,22.62T918,442.78q0,32.76-22.79,55.59t-55.58,22.82q-33.2,0-56-22.72t-22.84-55a79.57,79.57,0,0,1,10.4-39.87,76.86,76.86,0,0,1,67.25-39.16ZM839,379a63.72,63.72,0,0,0-54.56,31.88,64.64,64.64,0,0,0-8.33,32.58q0,26.61,18.44,44.93A60.76,60.76,0,0,0,839,506.69a63.79,63.79,0,0,0,32.16-8.43,60.31,60.31,0,0,0,23.07-23.05,64.73,64.73,0,0,0,8.28-32.49,63.19,63.19,0,0,0-8.28-32.13,61.82,61.82,0,0,0-23.32-23A63.06,63.06,0,0,0,839,379Z"/></svg>